<svg width="848" height="163" viewBox="0 0 848 163" fill="none" xmlns="http://www.w3.org/2000/svg">
<path fill-rule="evenodd" clip-rule="evenodd" d="M767.849 2.14322C769.365 1.98273 774.045 1.82268 775.423 2.46624C776.788 3.38077 776.955 6.87827 778.392 7.568C779.7 8.19629 782.706 6.02487 784.281 5.454C787.332 6.65136 791.529 9.63878 789.975 13.1184C789.687 13.7609 789.551 14.7106 789.685 15.4154C790.855 17.5075 795.485 16.5758 795.951 19.6347C796.455 22.9299 796.316 27.316 795.087 30.4129C794.849 31.015 793.255 31.1522 792.742 31.2204C794.197 32.4475 796.308 34.6218 797.732 36.0135C798.346 36.7902 798.827 37.4932 799.599 38.1072C801.692 40.4816 805.252 45.6898 806.568 48.6445C806.811 49.2027 807.346 50.5248 807.64 50.9774C808.852 53.6458 809.553 55.8019 810.452 58.5924C821.819 60.6634 831.891 67.1888 838.441 76.7235C850.084 93.4719 848.338 116.92 830.793 128.852C827.317 131.203 823.502 133.007 819.481 134.201C817.425 137.841 815.577 139.981 811.402 141.411C808.575 142.379 807.253 141.254 805.121 141.517C800.915 142.037 800.461 142.899 796.008 141.625C793.563 143.89 792.375 144.661 790.912 147.75C792.958 148.44 799.332 148.234 801.759 148.451C807.624 148.978 833.181 149.489 837.139 152.4L837.238 152.737C834.426 155.283 802.38 156.813 796.891 157.085C775.775 158.213 754.618 158.298 733.495 157.341C727.685 157.046 695.261 155.479 692.564 152.81L692.559 152.395C694.436 150.475 714.866 148.923 718.494 148.863C716.238 145.002 715.375 138.578 714.221 136.359C710.669 136.675 706.026 136.847 702.488 136.715C697.907 136.554 692.723 134.407 688.474 133.493C683.555 132.41 679.874 129.438 675.84 126.143C670.993 122.184 664.626 122.772 660.682 117.213C657.076 112.129 656.623 103.552 661.371 99.1906C657.491 97.0778 649.762 91.8906 650.975 86.9122C651.487 84.8147 652.846 83.0246 654.727 81.9708C657.943 80.1365 660.871 80.567 664.181 81.5238C666.786 76.4662 669.63 72.5788 673.944 68.7676C675.173 67.9241 676.258 66.9526 677.39 65.9832C678.31 65.5548 680.546 63.9597 681.671 63.324C684.929 61.4842 688.472 59.7005 692.048 58.5832C692.448 56.4789 692.758 54.7728 693.373 52.709C693.682 51.6914 694.001 50.677 694.331 49.6658C702.902 27.8502 721.769 17.1037 743.966 16.1935C745.808 16.1179 751.288 16.4968 752.554 15.8673C752.703 15.2439 752.544 10.5039 752.553 9.3829C753.955 7.80152 756.095 5.81551 757.996 4.88771C759.916 5.48107 761.806 6.69787 763.675 7.6326C764.366 7.45353 765.073 7.12436 765.739 6.84259C766.412 5.62587 767.18 3.55755 767.849 2.14322ZM744.641 139.076C744.199 142.474 743.9 144.384 742.608 147.522C743.63 147.802 748.738 147.567 750.091 147.546C754.693 147.475 759.296 147.443 763.899 147.45C762.418 144.567 761.699 142.167 760.731 139.097C754.811 139.136 750.714 139.312 744.641 139.076Z" fill="black"/>
<path d="M771.709 0.00338047C772.511 0.014049 773.344 0.0512075 774.089 0.134116C774.769 0.209748 775.608 0.345309 776.276 0.657457L776.418 0.723622L776.547 0.810513C777.339 1.34067 777.8 2.12267 778.079 2.68944C778.37 3.27841 778.605 3.94453 778.786 4.44042C778.975 4.95893 779.118 5.32925 779.261 5.60668C779.537 5.52293 779.897 5.37523 780.344 5.15986C780.859 4.91162 781.369 4.6353 781.927 4.34316C782.437 4.0765 783.036 3.77007 783.577 3.5739L784.299 3.31243L785.013 3.59303C786.721 4.26333 788.827 5.455 790.334 7.07785C791.859 8.72028 793.068 11.1968 791.821 13.9873L791.821 13.9881C791.749 14.1488 791.698 14.3747 791.674 14.5888C791.727 14.6156 791.79 14.6461 791.867 14.6784C792.341 14.8778 792.835 14.9938 793.655 15.2412C794.352 15.4516 795.302 15.7658 796.12 16.3585C797.026 17.0154 797.742 17.9915 797.95 19.3578L797.998 19.6902C798.478 23.1647 798.329 27.7587 796.966 31.193L796.965 31.1926C796.843 31.5017 796.673 31.7534 796.49 31.9571C797.464 32.9079 798.425 33.8783 799.139 34.5754L799.233 34.6674L799.314 34.7703C800.028 35.6743 800.315 36.1061 800.849 36.5304L800.99 36.6428L801.109 36.7783C803.302 39.2657 806.99 44.6429 808.409 47.8291L808.413 47.8379L808.417 47.8466C808.576 48.212 808.714 48.5541 808.93 49.0436C809.025 49.2609 809.116 49.4599 809.196 49.6235C809.235 49.7048 809.268 49.7698 809.295 49.8192L809.329 49.881L809.412 50.0085L809.475 50.1473C810.563 52.5418 811.256 54.5452 812 56.8323C823.399 59.2286 833.46 65.9248 840.082 75.559L840.365 75.9699C852.209 93.4247 850.425 117.925 831.91 130.515L831.905 130.518C828.484 132.832 824.751 134.639 820.82 135.888C819.88 137.479 818.884 138.89 817.609 140.091C816.122 141.491 814.351 142.519 812.04 143.31C810.242 143.925 808.868 143.874 807.712 143.719C806.518 143.559 806.076 143.422 805.352 143.511C804.368 143.632 803.603 143.773 802.912 143.905C802.241 144.033 801.551 144.17 800.846 144.241C799.564 144.371 798.309 144.279 796.546 143.85C795.534 144.769 794.836 145.388 794.238 146.118C794.864 146.154 795.54 146.182 796.236 146.202C798.271 146.261 800.63 146.267 801.924 146.383C803.338 146.51 805.977 146.638 809.289 146.807C812.571 146.974 816.457 147.18 820.289 147.46C824.113 147.74 827.923 148.097 831.046 148.575C832.605 148.813 834.032 149.087 835.223 149.408C836.28 149.693 837.353 150.066 838.157 150.607L838.314 150.717L838.866 151.123L839.527 153.35L838.574 154.213C838.116 154.628 837.543 154.891 837.087 155.067C836.587 155.261 836.005 155.432 835.382 155.586C834.132 155.895 832.554 156.176 830.784 156.432C827.236 156.947 822.747 157.39 818.21 157.758C809.128 158.496 799.717 158.947 796.976 159.083C775.804 160.213 754.591 160.299 733.41 159.339L733.405 159.339H733.4C730.5 159.192 720.913 158.725 711.709 157.96C707.112 157.578 702.573 157.118 698.998 156.582C697.215 156.314 695.626 156.021 694.371 155.696C693.745 155.534 693.16 155.354 692.657 155.148C692.2 154.962 691.614 154.677 691.155 154.223L690.561 153.635L690.533 151.535L691.126 150.929C691.502 150.545 691.957 150.301 692.291 150.148C692.658 149.978 693.071 149.832 693.495 149.704C694.343 149.446 695.392 149.212 696.541 148.998C698.85 148.568 701.75 148.186 704.666 147.867C708.567 147.439 712.587 147.114 715.387 146.936C714.819 145.445 714.37 143.891 713.993 142.498C713.657 141.262 713.389 140.2 713.114 139.237C713.034 138.959 712.959 138.708 712.888 138.484C709.538 138.726 705.58 138.842 702.435 138.725C699.889 138.635 697.252 138 694.83 137.323C692.311 136.619 690.116 135.9 688.07 135.461L688.065 135.459L688.06 135.459C682.597 134.256 678.559 130.949 674.581 127.701C672.479 125.984 670.102 125.277 667.218 124.159C664.433 123.08 661.385 121.658 659.056 118.376C656.984 115.456 655.859 111.613 655.892 107.898C655.917 105.046 656.632 102.121 658.275 99.7092C656.547 98.6252 654.569 97.2096 652.888 95.5894C651.663 94.4098 650.517 93.0472 649.761 91.5486C648.998 90.0339 648.583 88.2721 649.034 86.4248V86.4236C649.68 83.7771 651.395 81.5183 653.769 80.1885C657.107 78.2899 660.205 78.441 663.174 79.1379C665.682 74.5711 668.523 70.8671 672.625 67.2429L672.719 67.1604L672.822 67.0899C673.936 66.3254 674.913 65.4504 676.094 64.4393L676.306 64.2575L676.559 64.1399C676.855 64.0022 677.5 63.5965 678.369 63.0295C679.141 62.5255 680.061 61.9145 680.697 61.5551C683.656 59.8842 686.926 58.2126 690.294 57.034C690.604 55.4182 690.919 53.8993 691.443 52.1394L691.446 52.129C691.759 51.0993 692.082 50.0724 692.416 49.0484L692.435 48.9906L692.457 48.9344C701.373 26.2441 721.046 15.1243 743.887 14.1878C744.854 14.1481 746.886 14.2249 748.486 14.2308C749.259 14.2337 749.979 14.2223 750.581 14.1854C750.58 13.7845 750.576 13.3375 750.57 12.8761C750.551 11.5294 750.512 9.99149 750.517 9.40239L750.523 8.63711L751.031 8.06474C752.489 6.42074 754.841 4.19622 757.103 3.09241L757.826 2.73926L758.595 2.97722C759.734 3.3293 760.818 3.8502 761.796 4.3619C762.573 4.76871 763.199 5.12045 763.845 5.46358C763.975 5.41207 764.111 5.35473 764.258 5.29259C764.459 4.87042 764.679 4.36656 764.917 3.80667C765.262 2.99642 765.646 2.06553 766.003 1.31074L766.492 0.275215L767.63 0.154444C768.481 0.0643399 770.112 -0.0178514 771.709 0.00338047ZM775.415 2.50689C774.038 1.86368 769.359 2.02364 767.844 2.18403C767.176 3.5976 766.408 5.66485 765.736 6.88095C765.069 7.16256 764.362 7.49156 763.672 7.67054C761.804 6.73632 759.914 5.52015 757.995 4.92709C756.094 5.85439 753.955 7.83939 752.554 9.41993C752.545 10.5403 752.703 15.2776 752.555 15.9009C751.29 16.5301 745.812 16.1515 743.97 16.2269C721.781 17.1367 702.92 27.8776 694.352 49.6817C694.023 50.6924 693.704 51.7063 693.395 52.7233C692.78 54.7861 692.47 56.4913 692.071 58.5944C688.496 59.7111 684.954 61.4939 681.698 63.3328C680.573 63.9681 678.337 65.5623 677.418 65.9906C676.286 66.9594 675.202 67.9305 673.973 68.7735C669.661 72.5827 666.818 76.4681 664.214 81.523C660.905 80.5667 657.978 80.1365 654.763 81.9698C652.883 83.023 651.524 84.8123 651.012 86.9087C649.8 91.8844 657.526 97.0689 661.405 99.1807C656.659 103.539 657.111 112.112 660.716 117.193C664.658 122.75 671.023 122.162 675.868 126.119C679.901 129.412 683.581 132.383 688.497 133.465C692.745 134.378 697.927 136.525 702.506 136.686C706.044 136.818 710.685 136.646 714.235 136.329C715.389 138.548 716.252 144.968 718.507 148.827C714.88 148.887 694.459 150.438 692.581 152.357L692.587 152.771C695.282 155.44 727.695 157.006 733.503 157.301C754.619 158.257 775.768 158.172 796.875 157.045C802.364 156.773 834.398 155.243 837.209 152.699L837.109 152.362C833.153 149.453 807.605 148.942 801.742 148.415C799.316 148.198 792.944 148.404 790.899 147.714C792.361 144.628 793.549 143.856 795.993 141.592C800.444 142.866 800.899 142.004 805.103 141.485C807.234 141.222 808.556 142.346 811.381 141.379C815.555 139.95 817.403 137.81 819.458 134.173C823.477 132.98 827.291 131.177 830.766 128.827C848.304 116.9 850.05 93.4648 838.411 76.7252C831.864 67.1956 821.795 60.6736 810.432 58.6036C809.534 55.8146 808.833 53.6597 807.621 50.9926C807.327 50.5403 806.792 49.2188 806.549 48.6609C805.234 45.7078 801.675 40.5024 799.583 38.1291C798.811 37.5155 798.33 36.8129 797.717 36.0366C796.293 34.6456 794.183 32.4725 792.728 31.246C793.242 31.1778 794.835 31.0406 795.073 30.4389C796.301 27.3437 796.44 22.9598 795.937 19.6663C795.47 16.6091 790.842 17.5402 789.673 15.4493C789.538 14.7449 789.675 13.7956 789.962 13.1535C791.516 9.67573 787.32 6.68982 784.271 5.49308C782.696 6.06365 779.691 8.23384 778.383 7.60597C776.947 6.91662 776.78 3.42099 775.415 2.50689ZM744.645 139.045C750.715 139.281 754.811 139.106 760.729 139.067C761.696 142.135 762.415 144.533 763.896 147.415C759.294 147.408 754.693 147.44 750.093 147.511C748.74 147.532 743.635 147.767 742.613 147.487C743.904 144.35 744.203 142.442 744.645 139.045ZM759.241 141.121C754.722 141.169 751.08 141.273 746.414 141.144C746.182 142.729 745.922 144.085 745.466 145.58C745.703 145.578 745.947 145.576 746.195 145.571C746.967 145.559 747.753 145.536 748.436 145.516C749.106 145.495 749.704 145.476 750.062 145.471C753.617 145.416 757.172 145.384 760.728 145.375C760.156 143.955 759.702 142.578 759.241 141.121Z" fill="white"/>
<path d="M772.155 143.683C776.225 147.235 777.82 147.898 783.076 146.126L785.281 147.205C780.891 151.6 775.267 152.665 770.698 147.783C770.557 147.633 770.421 147.481 770.284 147.328C771.611 147.241 772.73 148.802 774.266 148.497C774.301 147.845 772.541 145.527 772.185 143.844L772.155 143.683Z" fill="white"/>
<path d="M724.918 137.77C726.423 137.729 727.555 142.639 729.081 144.35C733.372 145.25 733.129 144.948 737.333 146.658C734.755 151.087 727.131 151.862 723.727 148.073C722.437 146.637 722.061 145.953 721.294 144.242C722.058 144.107 724.918 146.142 725.74 146.671C724.825 144.441 723.092 139.86 724.918 137.77Z" fill="white"/>
<path d="M781.405 128.122C783.877 130.705 791.106 136.092 792.522 138.202C791.283 140.43 789.821 141.954 787.352 142.85L786.814 142.534C786.696 141.848 787.25 140.559 787.492 139.802C786.61 138.607 785.008 137.14 783.907 136.043C781.466 134.536 779.891 135.324 778.74 137.841C778.825 139.571 780.076 141.439 779.897 142.312C779.653 142.655 779.467 143.006 778.988 143.015C776.095 143.072 774.756 140.958 774.026 138.678C773.934 137.064 773.859 136.955 774.399 135.436C775.137 133.363 779.522 128.802 781.405 128.122Z" fill="white"/>
<path d="M787.725 112.388C795.218 105.116 800.41 109.206 806.43 115.229C809.169 117.191 815.193 121.972 815.593 125.357C816.122 129.827 813.29 135.981 808.501 136.899C807.995 136.995 807.814 136.784 807.457 136.518C807.04 135.411 808.629 132.371 809.212 131.082C809.32 130.842 809.43 130.603 809.54 130.364C808.904 131.06 808.193 131.764 807.559 132.429C800.109 140.248 798.236 137.244 791.592 131.341C786.504 126.556 779.699 124.558 784.961 116.506C785.945 114.999 786.29 113.781 787.725 112.388Z" fill="white"/>
<path d="M723.448 72.7369C725.344 72.7282 726.668 73.2166 727.527 75.0739C728.04 76.1996 728.087 77.4828 727.66 78.6434C727.133 80.0446 726.358 80.5799 725.076 81.1758C723.402 81.2001 722.131 80.6429 721.261 79.1176C720.639 78.014 720.503 76.7005 720.886 75.4923C721.346 73.9958 722.158 73.4449 723.448 72.7369Z" fill="white"/>
<path d="M768.927 70.9316C774.272 70.2914 774.969 76.611 770.749 79.1515C765.764 80.0486 764.544 73.8873 768.927 70.9316Z" fill="white"/>
<path fill-rule="evenodd" clip-rule="evenodd" d="M696.404 63.3431C699.346 36.8758 721.769 20.5271 747.544 21.7482C747.588 22.3423 747.558 23.1138 747.552 23.7262C747.653 25.8918 747.626 27.4566 748.314 29.5193C749.981 30.0962 751.472 30.4426 753.178 30.856C752.664 32.3172 752.365 33.3961 752.172 34.9559L752.154 36.3324C752.771 37.4592 756.545 40.9474 758.055 41.3638C761.481 42.3083 763.753 37.1374 766.062 40.4783C766.647 41.323 767.14 44.2103 767.6 45.4223C770.154 45.563 773.559 45.7274 776.1 45.4961C778.244 39.0493 778.185 38.17 784.169 42.8173C786.763 42.0021 789.174 39.7671 791.089 37.8386C798.25 43.2987 804.995 56.5223 806.241 65.4679L806.28 65.7679C814.771 62.7436 826.687 72.0919 831.649 78.2848C832.187 78.9732 832.99 79.9408 833.422 80.6621C836.638 84.1279 838.427 89.5875 839.363 94.1311L839.422 94.4869C840.631 101.944 839.308 108.879 834.869 115.128C831.431 120.03 826.522 123.703 820.856 125.615C820.267 120.398 818.549 119.149 814.953 115.55C816.132 113.852 816.946 112.686 818.478 111.276C828.083 110.013 832.903 106.191 833.547 96.3556L833.575 95.8829C833.326 93.3858 832.918 91.9979 831.816 89.787C830.606 88.4836 829.261 87.2138 827.645 86.3934C822.913 83.9912 820.345 79.1353 814.61 78.8117C809.049 78.4981 802.581 85.0526 802.012 90.4412C802.273 98.405 805.262 98.5879 798.811 104.92C791.998 105.322 788.77 107.169 784.124 112.382C780.494 116.453 779.127 118.584 778.884 124.024C775.081 128.42 773.606 129.231 768.01 130.303C753.795 133.029 739.334 132.531 725.645 127.637C725.324 127.522 724.879 127.832 724.617 127.974C717.838 130.176 708.097 132.358 701.101 130.431C699.297 130.447 691.616 128.656 691.238 126.994L691.814 126.66C697.633 122.86 701.44 115.856 701.549 108.936C701.75 92.3307 685.915 90.8094 673.461 85.2471C672.022 84.6898 670.745 84.1978 669.35 83.5403C669.583 82.7164 671.134 80.0899 671.667 79.3677C678.131 70.5983 685.881 65.4417 696.404 63.3431ZM760.287 92.7769C753.439 95.8917 745.284 97.2101 738.047 94.6616C738.534 100.497 739.678 104.539 743.556 108.936C745.324 103.639 751.724 101.556 756.702 102.854C757.723 103.12 758.218 103.43 758.734 104.317C758.903 105.342 758.188 106.671 757.76 107.674C760.653 104.002 760.927 97.1906 760.287 92.7769ZM726.319 68.8615C720.09 64.7417 712.35 67.0081 708.734 73.3396C705.769 78.3777 705.408 83.8306 706.897 89.438C707.235 90.7144 708.302 94.4511 709.442 95.1295C707.39 89.1853 707.111 82.7285 709.931 76.9845C712.398 71.9602 715.589 70.0339 721.103 69.4263C717.395 71.472 716.289 72.9192 714.992 76.9087C712.481 84.6367 716.403 98.2397 726.287 97.6081L726.628 97.5043C733.686 95.222 734.706 86.7043 733.486 80.3378C732.63 75.8702 730.155 71.3984 726.319 68.8615ZM790.192 79.3382C789.131 66.4498 774.67 57.98 765.463 69.5587C759.482 77.0807 760.552 95.0165 772.255 95.7645C781.558 93.9717 783.188 82.4298 780.512 74.8737C779.072 70.8039 777.247 68.8907 773.382 67.0291C775.071 67.0117 776.386 67.0827 778.024 67.4635C781.496 68.6524 784.515 71.1848 786.133 74.5031C786.251 74.7495 786.363 74.9997 786.467 75.2526C788.927 80.024 789.475 88.0084 787.808 93.0761C790.184 90.0318 790.5 83.0947 790.192 79.3382ZM727.756 61.0783C724.609 57.2277 722.617 55.9902 717.537 56.339C712.76 57.6415 710.083 60.0479 708.092 64.5868C710.866 62.3268 712.722 61.04 716.202 59.995C720.705 58.7745 723.408 59.5712 727.756 61.0783ZM783.361 60.0836C780.881 55.5169 776.661 53.0251 771.369 53.6713C768.518 54.3311 766.18 55.4931 764.529 58.0784C764.193 58.6046 763.89 59.1514 763.619 59.715C768.116 57.5263 771.102 56.1287 776.225 57.1371C778.923 57.7453 780.943 58.756 783.361 60.0836Z" fill="white"/>
<path d="M677.843 95.8303C684.564 91.4757 691.958 96.9448 695.639 103.043C698.753 108.828 694.288 116.126 690.29 120.27C685.157 125.591 679.23 123.33 673.891 119.191C676.061 117.688 689.19 107.731 686.899 104.609C686.282 107.639 668.621 107.586 677.843 95.8303Z" fill="white"/>
<path d="M664.095 86.3344C668.77 88.6323 673.541 90.3917 678.006 92.9042C677.076 93.3996 676.38 93.7542 675.506 94.3573C668.79 100.486 670.682 107.318 679.457 109.523C674.074 118.337 659.94 118.07 662.013 105.316C663.029 101.802 665.112 100.097 667.897 97.9012C665.456 96.418 662.378 94.8833 659.771 93.6856C650.6 89.4433 655.521 82.1195 664.095 86.3344Z" fill="white"/>
<path d="M807.372 87.4584C810.873 82.9117 814.51 80.6139 819.672 84.63C817.891 86.883 812.371 90.5867 814.319 93.3976C818.984 100.126 823.954 97.3754 825.593 90.5098L825.839 90.1137C827.667 89.7592 829.507 92.3727 829.837 93.9883C830.367 96.6597 829.766 99.4324 828.174 101.641C824.72 106.465 821.048 106.032 815.971 106.345C814.174 107.964 811.812 110.857 810.096 112.771C808.05 111.363 806.1 109.824 804.254 108.163C803.913 107.992 802.579 106.989 802.192 106.711C803.532 105.212 804.894 103.774 806.006 102.097C808.268 96.8738 803.41 92.6013 807.372 87.4584Z" fill="white"/>
<path fill-rule="evenodd" clip-rule="evenodd" d="M773.943 5.15396C774.517 6.60523 774.91 7.65269 775.666 9.00864C777.231 9.71765 778.218 9.98339 779.889 10.4561C781.195 9.9268 782.832 9.10722 784.134 8.49929C785.214 9.16096 786.614 10.3048 787.655 11.1075C786.763 12.4443 786.478 12.9474 785.846 14.4101C786.547 16.021 786.914 16.9345 787.871 18.4032C789.306 19.042 791.228 19.2874 792.369 20.1981C792.85 20.5833 792.705 21.3047 792.703 21.9604L792.622 24.2387C791.442 24.3443 790.264 24.4628 789.088 24.5945C787.325 25.2935 786.948 26.3738 786.212 28.0834L785.962 28.6717C786.402 29.6583 787.525 31.5562 788.092 32.6289L784.751 35.2866C783.268 34.4591 781.945 33.6748 780.352 33.0697C778.483 33.4205 777.755 33.6055 776.064 34.3788C775.267 35.6664 774.786 37.2546 774.356 38.6945C772.691 38.7078 771.028 38.7086 769.363 38.6969C768.893 37.1835 768.581 35.5333 767.495 34.3572C764.813 31.4512 761.369 33.3984 758.654 34.9184C757.515 34.1752 756.364 33.2013 755.294 32.3405C756.003 31.259 756.782 29.7444 757.421 28.5812C756.733 27.1283 756.207 26.1016 755.398 24.7173C754.11 24.284 751.723 23.8973 750.366 23.6575C750.318 22.2874 750.374 20.7539 750.396 19.3689C751.934 19.0452 753.777 18.6614 755.202 18.0415C756.111 16.8658 756.739 15.4507 757.283 14.0767L755.058 10.6364C755.997 9.75873 757.028 8.92609 758.014 8.09882C759.781 8.84867 761.143 9.54875 762.999 10.2384C764.804 9.87424 766.127 9.47195 767.782 8.70471C768.316 7.70381 768.888 6.10601 769.318 5L773.943 5.15396ZM773.547 28.5991C784.853 25.6877 781.091 13.4268 769.579 14.3679C758.123 16.8089 762.752 29.8513 773.547 28.5991Z" fill="white"/>
<path fill-rule="evenodd" clip-rule="evenodd" d="M280.02 48.0915C280.794 50.1658 270.425 111.111 269.24 119.546C268.625 124.002 268.232 128.485 268.063 132.977L251.584 132.925L251.25 126.597C243.785 134.398 235.541 137.127 225.373 132.681C203.096 118.823 221.673 65.0249 258.049 77.583C259.681 67.88 261.042 58.1565 262.706 48.4281C267.694 48.4332 272.682 48.3257 277.666 48.1064C278.676 48.0045 279 48.0507 280.02 48.0915ZM254.38 101.088C255.904 93.0832 258.068 87.0157 246.759 88.7646C241.42 91.5485 238.006 95.74 236.352 101.634C234.197 109.313 232.274 121.927 244.039 121.249C253.461 115.864 252.525 110.837 254.38 101.088Z" fill="white"/>
<path fill-rule="evenodd" clip-rule="evenodd" d="M128.136 75.6202C140.659 74.6871 151.554 80.7035 153.378 93.9451C154.687 103.913 152.059 113.998 146.051 122.054C139.746 130.35 132.754 133.19 122.856 134.592C116.023 134.72 109.5 134.404 103.838 129.943C91.5752 120.28 94.83 97.9784 103.913 87.23C110.359 79.6022 118.482 76.3851 128.136 75.6202ZM126.569 88.7337C116.13 91.8493 113.779 106.432 115.547 115.916C116.408 120.53 119.761 121.83 124.024 121.907C128.413 120.01 130.979 116.981 132.457 112.397C134.903 104.81 138.675 89.2334 126.569 88.7337Z" fill="white"/>
<path d="M45.8217 52.6648C56.6144 51.2626 65.3704 54.4545 73.9168 60.675C70.4777 65.1161 67.1676 69.3838 63.9095 73.9626C48.0334 60.7719 28.3236 72.8714 24.959 91.2323C20.3088 116.604 38.4981 126.557 59.134 112.143L61.7065 117.767L65.1899 125.155C52.6616 136.928 28.8186 138.351 15.3804 127.49C-1.25014 114.044 1.96464 84.0225 14.6331 68.9045C23.4049 58.4315 32.3682 54.1333 45.8217 52.6648Z" fill="white"/>
<path d="M163.249 77.5165C169.318 77.5012 175.388 77.6236 181.451 77.8938C179.432 89.1775 177.22 104.204 176.06 115.62C175.09 125.17 189.126 121.422 190.991 112.27C193.297 100.951 195.251 89.1622 196.475 77.5726C202.595 77.5369 208.715 77.6134 214.832 77.7969C214.081 83.5535 212.936 89.9066 212.023 95.6887C210.356 107.171 207.699 121.754 207.156 132.997L190.797 132.869C190.581 130.682 190.234 128.372 189.947 126.185C188.946 127.24 187.946 128.316 186.869 129.27C177.997 138.065 157.114 136.933 157.434 121.178C157.72 107.1 161.568 91.6759 163.249 77.5165Z" fill="white"/>
<path d="M94.8972 48.0963C96.6741 47.928 96.8866 47.8041 98.6523 48.239C98.5758 52.4864 95.6016 69.491 94.8467 74.4776C91.8282 93.9602 88.9539 113.468 86.2233 132.997L71.8126 133.002C70.1566 133.002 68.9801 133.338 67.9097 132.171C68.3313 125.139 70.9823 111.016 72.1368 103.602L80.7357 48.6826L94.8972 48.0963Z" fill="white"/>
<path d="M96.7981 43.9412C97.7667 43.9459 98.6222 44.1123 99.6087 44.3553C101.422 44.802 102.685 46.4441 102.652 48.3114C102.607 50.781 101.781 56.4315 100.955 61.7C100.088 67.2313 99.1839 72.5535 98.802 75.076L98.8001 75.0897C97.9358 80.6676 97.084 86.2479 96.2434 91.8299C97.5406 89.1737 99.0927 86.737 100.858 84.6483L101.547 83.8534C108.727 75.8 117.698 72.4347 127.821 71.6327L127.839 71.6307C134.786 71.1131 141.585 72.4991 147.004 76.1493C152.092 79.5762 155.697 84.831 157.051 91.6844C157.899 86.6775 158.712 81.8032 159.277 77.0448C159.515 75.036 161.216 73.5216 163.239 73.5164C169.369 73.501 175.501 73.6242 181.629 73.8973C182.781 73.9486 183.855 74.4949 184.575 75.3953C185.295 76.2958 185.592 77.4636 185.389 78.5985C183.384 89.8047 181.188 104.729 180.04 116.024C179.976 116.661 180.031 116.996 180.081 117.152C180.242 117.197 180.683 117.276 181.511 117.073C183.907 116.486 186.501 114.27 187.072 111.472C189.358 100.247 191.289 88.5871 192.497 77.1522L192.522 76.9637C192.818 75.0312 194.478 73.5838 196.451 73.5721C202.62 73.5361 208.789 73.6137 214.952 73.7987C216.082 73.8327 217.144 74.3427 217.877 75.203C218.61 76.0633 218.944 77.1937 218.798 78.3143C218.204 82.8684 217.358 87.8503 216.59 92.5096C220.099 85.5045 225.494 79.2204 232.573 75.4207C238.952 71.996 246.501 70.7032 254.824 72.5243C255.366 69.1622 255.888 65.792 256.412 62.4032C257.164 57.5458 257.925 52.6533 258.763 47.7537C259.092 45.8311 260.76 44.4256 262.71 44.4276C267.614 44.4326 272.519 44.3276 277.419 44.1131C278.669 43.9968 279.299 44.0593 280.18 44.0946C281.79 44.159 283.205 45.1839 283.768 46.6942C284.063 47.4863 284.058 48.2642 284.06 48.3866C284.065 48.7098 284.052 49.0553 284.032 49.3826C283.993 50.0482 283.912 50.8936 283.803 51.8582C283.584 53.8015 283.231 56.4338 282.788 59.5135C281.902 65.6835 280.637 73.7862 279.315 82.0643C276.658 98.6941 273.787 115.931 273.201 120.101C272.605 124.423 272.224 128.771 272.06 133.128C271.978 135.281 270.205 136.983 268.05 136.976L251.571 136.925C249.98 136.919 248.6 135.984 247.961 134.623C245.579 136.208 243.043 137.403 240.325 138.104C235.054 139.466 229.532 138.865 223.771 136.346C223.594 136.268 223.423 136.179 223.26 136.077C217.252 132.339 213.841 126.345 212.462 119.783C211.839 124.504 211.35 129.072 211.151 133.189C211.047 135.333 209.27 137.014 207.124 136.997L190.766 136.869C189.085 136.856 187.635 135.801 187.061 134.296C181.631 138.112 174.289 139.52 167.984 138.364C164.208 137.672 160.502 136.01 157.735 133.064C154.907 130.054 153.335 125.989 153.435 121.097C153.461 119.818 153.515 118.531 153.593 117.238C152.397 119.76 150.949 122.176 149.257 124.445C149.25 124.455 149.243 124.465 149.236 124.474C145.762 129.045 141.987 132.246 137.616 134.472C133.294 136.675 128.588 137.82 123.417 138.553C123.256 138.575 123.093 138.589 122.93 138.592C116.059 138.72 108.228 138.494 101.363 133.085C96.3201 129.112 93.5743 123.531 92.4465 117.616C91.6823 122.926 90.9277 128.238 90.1848 133.551C89.9086 135.526 88.2194 136.996 86.2249 136.997L71.8137 137.002C71.4981 137.002 71.2493 137.017 70.802 137.033C70.4239 137.047 69.8584 137.064 69.2542 137.005C67.8119 136.864 66.2729 136.305 64.9612 134.874C64.2289 134.075 63.8525 133.013 63.9172 131.931C63.93 131.718 63.9436 131.498 63.9602 131.272C57.3267 135.883 49.0391 138.386 40.8303 138.805C30.8882 139.312 20.5254 136.79 12.8665 130.6C3.26032 122.834 -0.309005 110.554 0.0207583 98.7127C0.350683 86.8669 4.57569 74.6787 11.5676 66.3348C16.2228 60.777 21.0612 56.7056 26.6506 53.8465C31.8776 51.173 37.5751 49.655 44.0764 48.8416L45.3879 48.6883C57.0243 47.198 66.5269 50.5705 75.4114 56.825L76.7835 48.0633C77.0787 46.1787 78.6645 44.7653 80.5706 44.6864L94.6184 44.1043C95.2276 44.0438 96.0772 43.9378 96.7981 43.9412ZM73.9172 60.6746C65.3708 54.4541 56.6143 51.2627 45.8215 52.6649L44.5735 52.8104C31.8082 54.4074 23.1307 58.7585 14.6331 68.9041C1.96458 84.0221 -1.25032 114.044 15.3801 127.49C28.8182 138.35 52.6613 136.928 65.1897 125.155L61.7063 117.766L59.134 112.142C38.8205 126.332 20.8781 116.909 24.7581 92.41L24.9592 91.2323C28.3239 72.8714 48.0333 60.7721 63.9094 73.9627C67.1675 69.384 70.4782 65.1157 73.9172 60.6746ZM280.02 48.0916C279 48.0509 278.676 48.0044 277.665 48.1063C272.682 48.3255 267.693 48.4327 262.705 48.4276C261.042 58.156 259.681 67.8799 258.049 77.5828C221.673 65.0247 203.097 118.823 225.373 132.681C235.541 137.127 243.786 134.398 251.25 126.597L251.583 132.925L268.063 132.976C268.232 128.485 268.625 124.002 269.24 119.546C270.416 111.177 280.633 51.1093 280.036 48.1502L280.02 48.0916ZM163.248 77.5164C161.568 91.6758 157.72 107.1 157.434 121.178L157.43 121.544C157.439 136.95 178.067 137.996 186.869 129.269C187.946 128.316 188.946 127.24 189.947 126.184C190.233 128.372 190.58 130.682 190.797 132.869L207.156 132.997C207.699 121.754 210.356 107.171 212.023 95.6883C212.936 89.9063 214.081 83.5532 214.832 77.7967C208.715 77.6132 202.595 77.5364 196.475 77.5721C195.251 89.1617 193.297 100.951 190.991 112.27L190.895 112.695C188.726 121.396 175.533 124.909 176.026 116.057L176.061 115.62C177.22 104.204 179.432 89.1771 181.451 77.8934C175.388 77.6232 169.318 77.5011 163.248 77.5164ZM153.378 93.9451C151.554 80.7035 140.659 74.6869 128.136 75.62C118.482 76.3848 110.359 79.6026 103.912 87.2303C94.8301 97.9788 91.5756 120.28 103.838 129.942C109.147 134.125 115.211 134.664 121.578 134.61L122.856 134.593C132.444 133.234 139.306 130.526 145.457 122.816L146.051 122.055C151.871 114.25 154.52 104.541 153.49 94.8797L153.378 93.9451ZM98.6526 48.2391C96.8869 47.8042 96.6736 47.9283 94.8967 48.0965L80.7356 48.6825L72.137 103.602L71.6409 106.67C70.3543 114.436 68.2783 126.018 67.9094 132.171C68.846 133.192 69.864 133.062 71.2131 133.014L71.8128 133.002L86.2229 132.997C88.6121 115.91 91.1123 98.8377 93.7219 81.785L94.8469 74.4774C95.5783 69.6464 98.3923 53.5372 98.637 48.6737L98.6526 48.2391ZM126.569 88.7332C138.675 89.2329 134.902 104.81 132.456 112.397C130.979 116.981 128.413 120.01 124.025 121.907L123.627 121.896C119.685 121.751 116.586 120.472 115.635 116.339L115.547 115.916C113.778 106.432 116.13 91.849 126.569 88.7332ZM246.759 88.7645C258.067 87.0156 255.904 93.0828 254.38 101.088C252.525 110.837 253.461 115.865 244.039 121.249C232.274 121.927 234.197 109.312 236.352 101.634C238.006 95.7398 241.42 91.5484 246.759 88.7645ZM127.075 92.7821C123.93 93.9849 121.649 96.9098 120.289 101.156C118.842 105.676 118.703 111.015 119.48 115.182L119.53 115.424C119.79 116.58 120.235 116.978 120.609 117.208C121.098 117.509 121.913 117.766 123.227 117.865C125.979 116.473 127.591 114.453 128.65 111.17L128.877 110.451C130.02 106.776 131.184 101.979 130.976 98.1229C130.866 96.0916 130.397 94.803 129.809 94.0633C129.398 93.5459 128.676 92.9679 127.075 92.7821ZM251.585 92.5994C251.108 92.4722 250.05 92.3615 248.032 92.6239C244.146 94.8078 241.666 97.8861 240.334 102.266L240.203 102.715C239.142 106.496 238.365 110.805 238.913 113.871C239.171 115.313 239.652 116.075 240.141 116.484C240.526 116.806 241.299 117.232 242.904 117.27C246.344 115.151 247.579 113.338 248.3 111.406C248.747 110.208 249.049 108.81 249.361 106.937C249.653 105.178 249.978 102.822 250.45 100.34C250.867 98.1495 251.239 96.522 251.463 94.9686C251.649 93.6785 251.638 92.9632 251.585 92.5994ZM73.7503 67.4354C71.5042 70.3604 69.323 73.253 67.1682 76.2811C66.523 77.1878 65.5295 77.7848 64.426 77.9285C63.3227 78.0722 62.2096 77.7499 61.3538 77.0389C54.6856 71.4986 47.5035 71.3536 41.5335 74.3426C35.3883 77.4193 30.3629 83.9364 28.8938 91.953C26.7221 103.802 30.0976 110.51 34.595 113.161C39.2251 115.89 47.1649 115.623 56.843 108.863C57.8159 108.184 59.0408 107.971 60.1858 108.283C61.3307 108.595 62.2781 109.399 62.7717 110.478L65.3245 116.06L65.8381 117.151C66.7015 111.795 67.6396 106.487 68.1848 102.986V102.983L73.7503 67.4354Z" fill="black"/>
<path fill-rule="evenodd" clip-rule="evenodd" d="M443.16 75.9181C452.522 74.6695 462.439 76.8408 471.098 80.3267C465.385 99.9935 465.675 124.573 458.138 142.803C450.774 160.599 422.428 161.654 406.742 153.087C408.459 150.188 410.227 146.783 411.863 143.796L413.709 140.127C420.171 144.21 430.934 147.4 437.702 142.512C443.354 138.43 444.287 132.034 445.341 125.668C430.705 140.285 410.304 135.551 410.324 113.453C410.34 93.5875 423.228 78.5428 443.16 75.9181ZM450.438 90.2646C449.215 88.2821 444.801 88.8679 442.604 89.0871C436.698 91.8544 433.426 95.0656 431.219 101.512C428.793 108.602 427.189 120.45 437.615 121.194C442.406 118.993 445.29 116.072 446.916 110.976C448.333 106.521 450.601 94.4693 450.438 90.2646Z" fill="black"/>
<path d="M303.466 54.7987L354.087 54.7324C353.526 59.3803 352.415 64.9302 351.6 69.6087L320.344 69.6699C319.305 74.2617 318.515 80.5048 317.776 85.2648C326.531 85.4483 335.684 85.3361 344.47 85.3565C343.665 90.3255 342.758 95.2791 341.739 100.212C333.228 100.401 324.274 100.248 315.732 100.233C315.059 103.184 314.499 107.225 313.989 110.288L312.944 117.611C323.586 117.856 334.578 117.688 345.316 117.866C344.633 122.81 343.782 127.733 342.768 132.62C326.73 133.206 307.863 132.727 291.606 132.722C295.363 106.7 299.847 80.8055 303.466 54.7987Z" fill="black"/>
<path fill-rule="evenodd" clip-rule="evenodd" d="M594.866 75.4441C598.653 75.3524 603.148 75.7807 606.516 77.4319C614.686 81.4479 615.511 90.3101 611.531 97.7915C607.011 106.292 597.373 108.907 588.613 110.609C585.769 111.165 582.864 111.363 580.102 112.189C578.578 112.653 578.742 112.775 578.258 113.83C580.154 128.191 597.96 120.108 605.222 114.487C606.226 118.335 607.433 122.335 608.529 126.173C594.585 138.848 561.511 139.006 559.625 114.177C558.973 104.677 562.051 95.2998 568.217 88.0477C575.5 79.6081 584.057 76.2698 594.866 75.4441ZM596.838 90.8806C595.396 87.7417 592.818 87.8228 589.806 87.991C584.745 90.3659 582.09 92.9707 580.164 98.4136C579.598 100.029 579.093 101.67 578.65 103.326C580.826 102.949 583.655 102.542 585.744 102.017C590.652 100.483 597.282 96.9453 596.838 90.8806Z" fill="black"/>
<path d="M538.231 75.8466C560.915 74.5165 556.292 91.0542 553.882 106.853L549.897 132.794L531.845 132.712C532.686 123.319 535.352 112.576 536.656 102.995C538.511 89.3571 534.811 82.8899 523.88 95.641C519.93 101.267 517.978 124.741 516.725 132.763L498.72 132.727C499.081 127.391 500.59 119.482 501.461 114.003C503.434 101.578 505.044 90.1726 506.058 77.6253L522.168 77.5845L523.36 84.0671C528.823 78.9503 530.898 77.7985 538.231 75.8466Z" fill="black"/>
<path d="M389.001 75.8211C405.585 74.5776 408.826 83.6848 406.563 98.3624C404.805 109.768 402.782 121.276 401.284 132.717L382.937 132.748C384.695 120.934 387.697 107.327 388.563 95.4473C388.726 93.2151 387.753 91.1867 386.025 89.6833C380.766 87.8842 377.331 92.4455 374.553 96.1302L374.309 96.5328C372.209 99.9321 368.703 126.897 367.755 132.692C361.767 132.763 355.672 132.702 349.679 132.697C352.196 117.143 356.513 92.5067 357.374 77.4877C362.822 77.4061 367.449 77.4214 372.913 77.6405L374.492 84.1333C379.247 79.4446 382.478 77.3297 389.001 75.8211Z" fill="black"/>
<path d="M479.343 77.5182C485.495 77.3857 491.656 77.4163 497.807 77.5998C494.653 95.5492 491.916 114.569 489.088 132.651C483.487 132.946 476.449 132.737 470.721 132.707C471.99 127.04 473.1 118.029 474.023 112.092C475.929 100.59 477.702 89.0666 479.343 77.5182Z" fill="black"/>
<path d="M354.082 50.7324C355.227 50.731 356.318 51.2208 357.078 52.0772C357.838 52.9334 358.195 54.0742 358.058 55.2109C357.481 59.9976 356.329 65.7746 355.541 70.2959C355.207 72.2081 353.548 73.6046 351.607 73.6084L323.62 73.6631C323.18 76.0843 322.786 78.739 322.406 81.333C329.691 81.4102 337.145 81.3394 344.479 81.3564C345.65 81.3592 346.762 81.8749 347.519 82.7676C348.277 83.6602 348.606 84.8402 348.419 85.9961C347.605 91.0188 346.688 96.0293 345.656 101.021C345.279 102.847 343.691 104.171 341.827 104.212C334.358 104.377 326.509 104.284 319.02 104.247C318.644 106.409 318.296 108.772 317.94 110.911L317.544 113.692C326.771 113.817 335.842 113.709 345.383 113.867C346.527 113.886 347.609 114.394 348.353 115.264C348.388 115.305 348.422 115.347 348.455 115.389C350.599 102.095 352.799 87.4083 353.381 77.2588L353.396 77.0635C353.608 75.0636 355.283 73.5187 357.314 73.4883C362.124 73.4163 366.327 73.4183 371.025 73.5693L373.073 73.6436L373.404 73.6709C375.042 73.8731 376.403 75.0692 376.799 76.6953L376.825 76.8047C377.548 76.2789 378.286 75.7889 379.057 75.3359C381.718 73.7714 384.565 72.7413 388.1 71.9238L388.399 71.8662C388.5 71.8509 388.601 71.8396 388.702 71.832C397.62 71.1633 404.425 73.1927 408.192 78.9238C410.748 82.8115 411.422 87.771 411.146 93.084C416.959 81.993 427.704 74.226 441.614 72.0977L442.638 71.9522C452.916 70.5829 463.556 72.9785 472.592 76.6162C473.874 77.1327 474.752 78.2468 475.015 79.5215C475.138 78.6662 475.262 77.8106 475.384 76.9551L475.413 76.7754C475.761 74.9265 477.36 73.5604 479.258 73.5195C485.479 73.3855 491.709 73.4161 497.927 73.6016C499.087 73.6362 500.176 74.173 500.909 75.0732C501.642 75.9735 501.948 77.1484 501.747 78.292C498.601 96.1927 495.879 115.118 493.04 133.269C492.748 135.137 491.187 136.546 489.299 136.646C483.543 136.949 476.265 136.737 470.699 136.707C469.489 136.701 468.346 136.146 467.592 135.199C466.837 134.252 466.553 133.014 466.817 131.833C468.048 126.335 469.11 117.658 470.07 111.478C470.072 111.464 470.075 111.452 470.077 111.438C471.649 101.953 473.128 92.4541 474.519 82.9385C472.044 92.0551 470.784 102.213 469.261 112.68C467.681 123.533 465.817 134.699 461.835 144.331L461.834 144.332C457.397 155.055 446.831 160.268 436.124 161.791C425.385 163.318 413.495 161.333 404.825 156.598C403.873 156.078 403.172 155.194 402.885 154.147C402.597 153.101 402.748 151.982 403.301 151.049C404.961 148.245 406.63 145.027 408.317 141.944L410.136 138.33L410.235 138.145C410.757 137.231 411.62 136.556 412.64 136.273C413.727 135.972 414.891 136.143 415.845 136.746C418.684 138.54 422.486 140.135 426.225 140.734C430.003 141.34 433.162 140.857 435.36 139.27C436.874 138.176 437.939 136.863 438.739 135.301C432.9 138.134 426.723 138.853 421.167 137.153C414.048 134.976 408.899 129.149 407.062 120.693C406.414 124.877 405.798 129.054 405.25 133.236C404.989 135.225 403.296 136.713 401.29 136.717L382.943 136.748C381.779 136.75 380.671 136.244 379.91 135.362C379.149 134.481 378.809 133.311 378.98 132.159C380.804 119.907 383.72 106.865 384.574 95.1563L384.58 95.0068C384.588 94.4515 384.412 93.8667 383.965 93.292C383.216 93.2169 382.551 93.4662 381.735 94.0684C380.462 95.0086 379.284 96.5038 377.867 98.3799L377.727 98.6094C377.722 98.6178 377.717 98.6264 377.712 98.6348C377.783 98.5193 377.622 98.7998 377.317 99.8965C377.053 100.846 376.761 102.103 376.45 103.61C375.83 106.617 375.176 110.417 374.551 114.344C373.926 118.261 373.336 122.259 372.842 125.652C372.352 129.013 371.947 131.843 371.703 133.337C371.39 135.253 369.744 136.668 367.803 136.691C361.781 136.763 355.617 136.701 349.675 136.696C348.503 136.695 347.391 136.181 346.632 135.288C346.468 135.095 346.324 134.888 346.201 134.671C345.52 135.81 344.298 136.567 342.914 136.617C326.782 137.207 307.706 136.728 291.605 136.723C290.445 136.722 289.341 136.217 288.582 135.34C287.823 134.463 287.482 133.299 287.647 132.15C291.45 105.811 295.863 80.4093 299.504 54.2471L299.534 54.0635C299.885 52.1817 301.529 50.8014 303.461 50.7988L354.082 50.7324ZM471.098 80.3272C462.439 76.8413 452.522 74.6695 443.16 75.918L442.23 76.0498C422.828 79.0138 410.339 93.898 410.324 113.453C410.304 135.551 430.705 140.285 445.342 125.669C444.287 132.034 443.354 138.431 437.702 142.513L437.382 142.735C430.599 147.3 420.07 144.145 413.709 140.127L411.863 143.797C410.227 146.783 408.459 150.187 406.742 153.087C422.428 161.654 450.773 160.599 458.138 142.803C465.675 124.573 465.385 99.9939 471.098 80.3272ZM594.769 71.4453C598.654 71.3512 603.717 71.7403 607.877 73.6504L608.277 73.8398L608.281 73.8418C613.48 76.3977 616.528 80.6536 617.502 85.5283C618.42 90.121 617.455 94.9804 615.277 99.2578L615.062 99.6699C609.549 110.037 597.972 112.866 589.376 114.536L589.375 114.535C587.855 114.832 586.24 115.048 584.942 115.25C584.186 115.368 583.485 115.489 582.822 115.628C583.25 116.597 583.792 117.055 584.238 117.311C585.153 117.835 586.713 118.098 589.073 117.706C593.81 116.92 599.472 113.88 602.774 111.324L602.977 111.177C604.012 110.475 605.32 110.295 606.513 110.701C607.784 111.135 608.753 112.178 609.093 113.478C610.081 117.267 611.256 121.157 612.375 125.075C612.792 126.537 612.345 128.11 611.22 129.133C603.249 136.378 590.251 139.824 578.984 138.197C573.273 137.372 567.714 135.206 563.401 131.26C559.834 127.996 557.286 123.664 556.171 118.296L553.85 133.401C553.549 135.36 551.86 136.803 549.879 136.794L531.827 136.712C530.707 136.707 529.641 136.232 528.888 135.404C528.134 134.576 527.761 133.471 527.861 132.355C528.3 127.453 529.209 122.253 530.143 117.197C531.09 112.075 532.057 107.125 532.693 102.455C533.133 99.2228 533.211 96.6171 533.004 94.7383C532.912 93.9115 532.779 93.3599 532.666 93.0049C532.647 93.0144 532.628 93.0239 532.608 93.0342C531.447 93.6437 529.609 95.1296 527.065 98.0723C526.563 98.8759 525.876 100.685 525.159 103.632C524.442 106.579 523.809 110.157 523.247 113.898C522.686 117.628 522.207 121.443 521.786 124.858C521.37 128.231 521.003 131.293 520.677 133.381C520.372 135.331 518.69 136.767 516.717 136.763L498.712 136.728C497.605 136.725 496.549 136.264 495.794 135.455C495.04 134.646 494.654 133.561 494.728 132.457C495.106 126.882 496.678 118.611 497.511 113.375C499.476 100.991 501.069 89.7008 502.071 77.3027C502.239 75.2295 503.968 73.6304 506.048 73.625L522.157 73.585L522.338 73.5879C524.102 73.6622 525.605 74.8882 526.041 76.5918C526.73 76.1118 527.428 75.6732 528.158 75.2695C530.731 73.8464 533.486 72.9706 537.202 71.9814L537.398 71.9346C537.595 71.8926 537.796 71.8653 537.997 71.8535C544.061 71.4979 548.939 72.2847 552.624 74.4668C556.474 76.7469 558.482 80.2247 559.363 84.0225C560.061 87.0331 560.074 90.3208 559.814 93.5566C561.256 90.6745 563.048 87.9525 565.17 85.457L565.189 85.4346C573.314 76.0195 582.955 72.3427 594.561 71.4561L594.769 71.4453ZM594.866 75.4443L593.859 75.5293C583.523 76.4838 575.273 79.8721 568.218 88.0479C562.051 95.2999 558.974 104.677 559.626 114.177L559.676 114.754C562.009 138.812 594.182 138.751 608.199 126.468L608.529 126.173C607.434 122.335 606.226 118.335 605.223 114.487C597.96 120.109 580.154 128.191 578.258 113.83C578.742 112.775 578.579 112.652 580.102 112.188C582.864 111.363 585.769 111.165 588.612 110.609C597.236 108.934 606.71 106.374 611.315 98.1856L611.531 97.792C615.511 90.3106 614.686 81.4476 606.516 77.4316C603.148 75.7805 598.653 75.3526 594.866 75.4443ZM303.466 54.7988L302.777 59.6738C299.289 84.0429 295.128 108.327 291.606 132.723C306.848 132.727 324.382 133.148 339.729 132.718L342.768 132.62C343.783 127.733 344.633 122.81 345.316 117.866C334.578 117.688 323.585 117.856 312.944 117.611L313.989 110.288C314.499 107.225 315.06 103.183 315.732 100.232C323.206 100.246 330.996 100.365 338.528 100.269L341.738 100.213C342.757 95.2796 343.665 90.3254 344.471 85.3564C335.685 85.3361 326.531 85.4481 317.775 85.2647C318.514 80.5047 319.305 74.2617 320.345 69.6699L351.599 69.6084C352.415 64.93 353.526 59.3802 354.087 54.7324L303.466 54.7988ZM497.808 77.5996C491.656 77.4161 485.495 77.3861 479.344 77.5186L478.722 81.8477C477.257 91.9469 475.691 102.027 474.023 112.092L473.668 114.45C472.82 120.23 471.831 127.748 470.721 132.707C476.091 132.736 482.612 132.921 488.021 132.7L489.088 132.65C491.916 114.569 494.653 95.5489 497.808 77.5996ZM553.882 106.853C556.292 91.054 560.914 74.5167 538.231 75.8467L536.916 76.2041C530.625 77.9578 528.482 79.2703 523.36 84.0674L522.168 77.585L506.058 77.625L505.861 79.9648C504.841 91.602 503.311 102.355 501.462 114.003L501.108 116.162C500.231 121.419 499.036 128.059 498.72 132.728L516.725 132.763C517.978 124.741 519.93 101.267 523.88 95.6406C534.811 82.8897 538.511 89.3573 536.656 102.995C535.351 112.576 532.686 123.319 531.846 132.712L549.896 132.794L553.882 106.853ZM406.563 98.3623C408.826 83.6849 405.585 74.5779 389.002 75.8213L388.399 75.9648C382.275 77.4648 379.098 79.5908 374.492 84.1328L372.913 77.6406C367.45 77.4215 362.822 77.4058 357.374 77.4873C356.513 92.5062 352.196 117.142 349.679 132.696C355.672 132.701 361.767 132.763 367.755 132.691C368.688 126.987 372.101 100.768 374.21 96.709L374.308 96.5332L374.554 96.1299C377.331 92.4453 380.766 87.8846 386.025 89.6836C387.753 91.187 388.726 93.2151 388.563 95.4473L388.475 96.5664C387.51 108.176 384.641 121.304 382.937 132.748L401.284 132.717C402.595 122.706 404.308 112.644 405.893 102.644L406.563 98.3623ZM442.604 89.0869C444.801 88.8678 449.214 88.2824 450.437 90.2647C450.6 94.4693 448.333 106.521 446.916 110.976C445.29 116.072 442.405 118.993 437.615 121.194L437.136 121.151C427.553 120.115 428.742 109.216 430.995 102.19L431.22 101.513C433.426 95.0658 436.698 91.8542 442.604 89.0869ZM446.324 92.835C445.485 92.8246 444.591 92.9064 443.704 92.9961C441.351 94.1527 439.707 95.3059 438.442 96.6553C437.172 98.0106 436.111 99.7475 435.186 102.289L435.004 102.808C433.87 106.121 433.097 110.131 433.553 113.132C433.771 114.57 434.226 115.475 434.757 116.026C435.137 116.421 435.767 116.854 436.927 117.078C438.477 116.271 439.626 115.414 440.519 114.45C441.579 113.307 442.44 111.844 443.105 109.76C443.732 107.789 444.616 103.872 445.33 99.8301C445.802 97.1586 446.151 94.6859 446.324 92.835ZM589.806 87.9902C592.817 87.8221 595.397 87.742 596.839 90.8809C597.282 96.9453 590.652 100.483 585.744 102.017C583.655 102.541 580.826 102.949 578.65 103.326C579.094 101.67 579.598 100.029 580.164 98.4141C582.09 92.9713 584.745 90.3661 589.806 87.9912V87.9902ZM591.869 91.9287C591.556 91.9206 591.216 91.9294 590.818 91.9463C588.935 92.8882 587.676 93.7837 586.719 94.7979C585.919 95.6453 585.21 96.701 584.551 98.1885C584.59 98.1791 584.628 98.1706 584.667 98.1611C586.819 97.4766 589.111 96.4205 590.747 95.0664C592.005 94.0249 592.63 93.0357 592.805 92.041C592.799 92.0395 592.794 92.0368 592.789 92.0352C592.637 91.9909 592.361 91.9415 591.869 91.9287Z" fill="white"/>
</svg>
